<svg width="467" height="537" fill="none" xmlns="http://www.w3.org/2000/svg" class="logo"><path d="M432.536 383.128a209.853 209.853 0 0 0-85.166-74.421V231.8a113.496 113.496 0 0 0-226.992 0v76.641a210.565 210.565 0 0 0-86.054 75.22V224.518c0-130.28 103.372-189.648 199.328-189.648 57.725 0 111.853 20.78 147.953 56.97 33.658 33.747 50.664 78.328 50.576 132.589v34.369l.355 124.33Zm0 118.336h-84.989v-161.63a185.527 185.527 0 0 1 39.12 29.529 176.411 176.411 0 0 1 45.869 82.28v49.821ZM313.179 295.031a265.853 265.853 0 0 0-158.299 0V231.8a79.171 79.171 0 1 1 158.299 0v63.231Zm0 120.467a106.034 106.034 0 0 0-158.299 0v-91.605a237.344 237.344 0 0 1 158.299 0v91.605Zm-192.623 86.143H34.324v-48.844a177.615 177.615 0 0 1 86.232-113.052v161.896Zm346.348-277.167C467.215 75.144 350.7.546 234.052.546 117.403.546.444 75.277.4 224.474v297.859a13.72 13.72 0 0 0 13.72 13.721H141.56a13.721 13.721 0 0 0 13.72-13.721v-32.37c0-43.338 33.392-81.125 76.73-82.413a79.124 79.124 0 0 1 81.17 79.127V522.2c0 1.806.356 3.593 1.049 5.261a13.71 13.71 0 0 0 7.452 7.428 13.714 13.714 0 0 0 5.264 1.032h126.195A13.721 13.721 0 0 0 466.86 522.2V224.474h.044Z" fill="#F15A29"/></svg>